<svg xmlns="http://www.w3.org/2000/svg" viewBox="0 0 400 700">
<defs>
  <radialGradient id="n3space" cx="50%" cy="40%" r="80%">
    <stop offset="0%" stop-color="#0c1238"/>
    <stop offset="50%" stop-color="#050510"/>
    <stop offset="100%" stop-color="#020208"/>
  </radialGradient>
  <radialGradient id="n3neb" cx="30%" cy="25%" r="45%">
    <stop offset="0%" stop-color="#1a3060" stop-opacity="0.3"/>
    <stop offset="100%" stop-color="#050510" stop-opacity="0"/>
  </radialGradient>
  <radialGradient id="n3neb2" cx="75%" cy="65%" r="40%">
    <stop offset="0%" stop-color="#182848" stop-opacity="0.25"/>
    <stop offset="100%" stop-color="#050510" stop-opacity="0"/>
  </radialGradient>
  <filter id="n3glow">
    <feGaussianBlur stdDeviation="2" result="b"/>
    <feMerge><feMergeNode in="b"/><feMergeNode in="SourceGraphic"/></feMerge>
  </filter>
</defs>
<!-- Deep space -->
<rect width="400" height="700" fill="url(#n3space)"/>
<!-- Nebula patches -->
<rect width="400" height="700" fill="url(#n3neb)"/>
<rect width="400" height="700" fill="url(#n3neb2)"/>
<!-- Stars -->
<circle cx="45" cy="30" r="1.2" fill="#fff" opacity="0.8"/>
<circle cx="120" cy="55" r="0.8" fill="#88ccff" opacity="0.7"/>
<circle cx="340" cy="40" r="1.5" fill="#fff" opacity="0.9"/>
<circle cx="280" cy="85" r="0.6" fill="#aaddff" opacity="0.6"/>
<circle cx="70" cy="150" r="1" fill="#fff" opacity="0.75"/>
<circle cx="200" cy="120" r="1.3" fill="#88ccff" opacity="0.65"/>
<circle cx="350" cy="180" r="0.9" fill="#fff" opacity="0.8"/>
<circle cx="30" cy="250" r="1.1" fill="#aaddff" opacity="0.7"/>
<circle cx="160" cy="280" r="0.7" fill="#fff" opacity="0.6"/>
<circle cx="300" cy="310" r="1.4" fill="#88ccff" opacity="0.85"/>
<circle cx="80" cy="380" r="0.9" fill="#fff" opacity="0.7"/>
<circle cx="250" cy="420" r="1.2" fill="#aaddff" opacity="0.75"/>
<circle cx="370" cy="480" r="0.8" fill="#fff" opacity="0.65"/>
<circle cx="50" cy="520" r="1.3" fill="#88ccff" opacity="0.8"/>
<circle cx="180" cy="560" r="1" fill="#fff" opacity="0.7"/>
<circle cx="320" cy="600" r="1.5" fill="#aaddff" opacity="0.9"/>
<circle cx="100" cy="650" r="0.7" fill="#fff" opacity="0.6"/>
<!-- Floating asteroids -->
<g opacity="0.35">
  <ellipse cx="60" cy="200" rx="28" ry="22" fill="#1a2040" stroke="#2a3555" stroke-width="0.8"/>
  <circle cx="52" cy="195" r="4" fill="#12182e"/>
  <circle cx="70" cy="205" r="3" fill="#12182e"/>
</g>
<g opacity="0.25">
  <ellipse cx="340" cy="350" rx="20" ry="16" fill="#1a2040" stroke="#2a3555" stroke-width="0.6"/>
  <circle cx="335" cy="346" r="3" fill="#12182e"/>
</g>
<g opacity="0.2">
  <ellipse cx="180" cy="500" rx="35" ry="25" fill="#1a2040" stroke="#2a3555" stroke-width="0.8"/>
  <circle cx="170" cy="495" r="5" fill="#12182e"/>
  <circle cx="192" cy="508" r="3.5" fill="#12182e"/>
</g>
<!-- Protective bubble hint (faint ring) -->
<circle cx="200" cy="350" r="80" fill="none" stroke="#88ccff" stroke-width="0.5" opacity="0.12"/>
</svg>