<svg xmlns="http://www.w3.org/2000/svg" viewBox="0 0 400 700">
<defs>
  <radialGradient id="n6bg" cx="50%" cy="50%" r="80%">
    <stop offset="0%" stop-color="#081018"/>
    <stop offset="60%" stop-color="#040810"/>
    <stop offset="100%" stop-color="#020408"/>
  </radialGradient>
  <radialGradient id="n6zone" cx="50%" cy="50%" r="50%">
    <stop offset="0%" stop-color="#22ff88" stop-opacity="0.04"/>
    <stop offset="100%" stop-color="#040810" stop-opacity="0"/>
  </radialGradient>
</defs>
<!-- Dark void -->
<rect width="400" height="700" fill="url(#n6bg)"/>
<rect width="400" height="700" fill="url(#n6zone)"/>
<!-- Grid lines (faded, agar.io style) -->
<g stroke="#1a3040" stroke-width="0.4" opacity="0.3">
  <line x1="0" y1="50" x2="400" y2="50"/>
  <line x1="0" y1="100" x2="400" y2="100"/>
  <line x1="0" y1="150" x2="400" y2="150"/>
  <line x1="0" y1="200" x2="400" y2="200"/>
  <line x1="0" y1="250" x2="400" y2="250"/>
  <line x1="0" y1="300" x2="400" y2="300"/>
  <line x1="0" y1="350" x2="400" y2="350"/>
  <line x1="0" y1="400" x2="400" y2="400"/>
  <line x1="0" y1="450" x2="400" y2="450"/>
  <line x1="0" y1="500" x2="400" y2="500"/>
  <line x1="0" y1="550" x2="400" y2="550"/>
  <line x1="0" y1="600" x2="400" y2="600"/>
  <line x1="0" y1="650" x2="400" y2="650"/>
  <line x1="50" y1="0" x2="50" y2="700"/>
  <line x1="100" y1="0" x2="100" y2="700"/>
  <line x1="150" y1="0" x2="150" y2="700"/>
  <line x1="200" y1="0" x2="200" y2="700"/>
  <line x1="250" y1="0" x2="250" y2="700"/>
  <line x1="300" y1="0" x2="300" y2="700"/>
  <line x1="350" y1="0" x2="350" y2="700"/>
</g>
<!-- Stars -->
<circle cx="35" cy="28" r="1" fill="#aaffcc" opacity="0.6"/>
<circle cx="150" cy="60" r="0.7" fill="#fff" opacity="0.5"/>
<circle cx="310" cy="45" r="1.2" fill="#aaffcc" opacity="0.65"/>
<circle cx="80" cy="180" r="0.8" fill="#fff" opacity="0.55"/>
<circle cx="260" cy="200" r="1" fill="#aaffcc" opacity="0.6"/>
<circle cx="370" cy="300" r="0.9" fill="#fff" opacity="0.5"/>
<circle cx="45" cy="420" r="1.1" fill="#aaffcc" opacity="0.7"/>
<circle cx="200" cy="480" r="0.7" fill="#fff" opacity="0.5"/>
<circle cx="340" cy="560" r="1.3" fill="#aaffcc" opacity="0.65"/>
<circle cx="100" cy="640" r="0.8" fill="#fff" opacity="0.55"/>
<!-- Small food-like particles scattered -->
<g opacity="0.2">
  <circle cx="70" cy="100" r="4" fill="#44ff88"/>
  <circle cx="300" cy="150" r="3" fill="#ff8844"/>
  <circle cx="180" cy="320" r="5" fill="#88aaff"/>
  <circle cx="350" cy="440" r="3.5" fill="#ff66aa"/>
  <circle cx="60" cy="550" r="4" fill="#ffdd44"/>
  <circle cx="250" cy="620" r="3" fill="#44ffdd"/>
</g>
</svg>