<svg xmlns="http://www.w3.org/2000/svg" viewBox="0 0 400 700">
<defs>
  <radialGradient id="n7bg" cx="50%" cy="35%" r="85%">
    <stop offset="0%" stop-color="#0f1230"/>
    <stop offset="50%" stop-color="#0a0a1a"/>
    <stop offset="100%" stop-color="#050508"/>
  </radialGradient>
  <radialGradient id="n7neb1" cx="20%" cy="20%" r="40%">
    <stop offset="0%" stop-color="#1a2868" stop-opacity="0.18"/>
    <stop offset="100%" stop-color="#0a0a1a" stop-opacity="0"/>
  </radialGradient>
  <radialGradient id="n7neb2" cx="80%" cy="70%" r="35%">
    <stop offset="0%" stop-color="#281850" stop-opacity="0.12"/>
    <stop offset="100%" stop-color="#0a0a1a" stop-opacity="0"/>
  </radialGradient>
</defs>
<!-- Background -->
<rect width="400" height="700" fill="url(#n7bg)"/>
<rect width="400" height="700" fill="url(#n7neb1)"/>
<rect width="400" height="700" fill="url(#n7neb2)"/>
<!-- Stars -->
<circle cx="50" cy="35" r="1.1" fill="#c0d8ff" opacity="0.75"/>
<circle cx="180" cy="55" r="0.7" fill="#fff" opacity="0.6"/>
<circle cx="330" cy="30" r="1.3" fill="#c0d8ff" opacity="0.8"/>
<circle cx="100" cy="130" r="0.9" fill="#fff" opacity="0.65"/>
<circle cx="280" cy="160" r="1" fill="#66ccff" opacity="0.7"/>
<circle cx="40" cy="260" r="0.8" fill="#fff" opacity="0.6"/>
<circle cx="360" cy="310" r="1.2" fill="#c0d8ff" opacity="0.75"/>
<circle cx="150" cy="400" r="0.7" fill="#fff" opacity="0.55"/>
<circle cx="300" cy="450" r="1.1" fill="#66ccff" opacity="0.7"/>
<circle cx="70" cy="530" r="0.9" fill="#fff" opacity="0.65"/>
<circle cx="250" cy="580" r="1.3" fill="#c0d8ff" opacity="0.8"/>
<circle cx="370" cy="650" r="0.7" fill="#fff" opacity="0.55"/>
<!-- Floating letters (very faint, decorative) -->
<g opacity="0.06" fill="#66ccff" font-family="system-ui" font-weight="900">
  <text x="40" y="80" font-size="28">E</text>
  <text x="340" y="120" font-size="22">C</text>
  <text x="60" y="300" font-size="32">N</text>
  <text x="310" y="380" font-size="26">S</text>
  <text x="100" y="500" font-size="24">G</text>
  <text x="280" y="600" font-size="30">O</text>
  <text x="190" y="200" font-size="20">F</text>
</g>
<!-- Constellation lines -->
<g stroke="#4466aa" stroke-width="0.4" opacity="0.1">
  <line x1="50" y1="35" x2="180" y2="55"/>
  <line x1="180" y1="55" x2="280" y2="160"/>
  <line x1="280" y1="160" x2="360" y2="310"/>
  <line x1="40" y1="260" x2="150" y2="400"/>
  <line x1="150" y1="400" x2="300" y2="450"/>
  <line x1="300" y1="450" x2="250" y2="580"/>
</g>
</svg>